<?xml version="1.0" standalone="no"?>
<!DOCTYPE svg PUBLIC "-//W3C//DTD SVG 1.1//EN" "http://www.w3.org/Graphics/SVG/1.1/DTD/svg11.dtd" >
<svg xmlns="http://www.w3.org/2000/svg">
<metadata>Generated by IcoMoon</metadata>
<defs>
<font id="icomoon" horiz-adv-x="1024">
<font-face units-per-em="1024" ascent="960" descent="-64" />
<missing-glyph horiz-adv-x="1024" />
<glyph unicode="&#x20;" horiz-adv-x="512" d="" />
<glyph unicode="&#xe900;" glyph-name="arrow-point-to-right" d="M782.857 397.307l-440.304-440.29c-28.009-28.022-73.42-28.022-101.415 0-27.997 27.997-27.997 73.406 0 101.401l389.601 389.589-389.589 389.576c-27.997 28.009-27.997 73.413 0 101.41 27.997 28.009 73.406 28.009 101.415 0l440.304-440.297c13.999-14.005 20.99-32.342 20.99-50.687 0-18.354-7.005-36.704-21.001-50.703z" />
<glyph unicode="&#xe901;" glyph-name="text-quotes" d="M792.799 776.813c-130.74 0-233.972-106.002-233.972-236.743s107.376-236.743 238.117-236.743c1.308 0 3.281 0.177 4.589 0.2-51.693-41.164-116.62-65.969-187.687-65.969-32.696 0-59.008-26.512-59.008-59.186s21.036-59.186 53.733-59.186c232.065 0.022 415.43 188.818 415.43 420.883 0 0.044 0 0.089 0 0.155 0 130.674-100.505 236.587-231.201 236.587zM238.294 776.813c-130.74 0-234.149-106.002-234.149-236.743s107.288-236.743 238.050-236.743c1.308 0 3.236 0.177 4.544 0.2-51.693-41.164-116.642-65.969-187.709-65.969-32.696 0-59.030-26.512-59.030-59.186s21.369-59.186 54.065-59.186c232.065 0.022 415.762 188.818 415.762 420.883 0 0.044 0 0.089 0 0.155 0 130.674-100.837 236.587-231.533 236.587z" />
<glyph unicode="&#xe902;" glyph-name="car" d="M424.918 498.865h68.269v-34.141h-68.269zM1007.646 549.896l-115.939 16.557c-21.14 12.987-43.079 24.613-65.699 34.815-74.7 33.836-155.775 51.295-237.787 51.205h-20.14c-96.784-0.069-192.020-24.356-277.026-70.644l-58.511-31.919c-68.491-0.771-135.662-18.987-195.166-52.906-24.182-13.869-39.114-39.6-39.155-67.47v-101.347c0-9.431 7.639-17.071 17.071-17.071h57.31c18.64-53.177 76.859-81.179 130.037-62.539 29.273 10.258 52.281 33.273 62.539 62.539h456.004c18.64-53.177 76.859-81.179 130.037-62.539 29.266 10.258 52.281 33.273 62.539 62.539h6.125c2.174 0 4.327 0.41 6.348 1.215l55.282 22.182c24.696 9.778 40.871 33.683 40.781 60.233v138.253c0 8.487-6.243 15.689-14.647 16.897zM235.787 331.596c-7.549-36.94-43.614-60.768-80.554-53.219-36.947 7.549-60.775 43.614-53.226 80.561 7.556 36.94 43.621 60.768 80.561 53.219 31.787-6.494 54.608-34.461 54.601-66.907 0-4.584-0.465-9.16-1.382-13.654zM544.392 345.25h-273.088c0 56.559-45.843 102.41-102.403 102.41s-102.41-45.85-102.41-102.41h-34.134v84.284c0.021 15.633 8.396 30.072 21.967 37.836 55.698 31.801 118.717 48.538 182.846 48.559h307.223zM544.392 550.063h-240.28l3.292 1.799c72.97 39.656 154.025 62.136 236.989 65.727zM578.526 618.338h9.66c68.783 0.076 136.94-12.98 200.826-38.475l-29.801-29.801h-180.686zM884.367 331.596c-7.549-36.94-43.614-60.768-80.561-53.219-36.94 7.549-60.768 43.614-53.219 80.561 7.549 36.94 43.621 60.768 80.561 53.219 31.787-6.494 54.608-34.461 54.601-66.907 0-4.584-0.465-9.16-1.382-13.654zM988.159 498.865h-51.205v-34.141h51.205v-69.977c0.042-12.577-7.626-23.897-19.321-28.516l-48.955-19.661c0 1.57-0.201 3.125-0.306 4.695s-0.139 3.41-0.306 5.118c-0.174 1.708-0.514 3.417-0.785 5.118-0.278 1.708-0.479 3.417-0.82 4.966-0.34 1.556-0.84 3.278-1.285 4.903-0.444 1.618-0.785 3.257-1.299 4.848-0.507 1.583-1.125 3.104-1.702 4.66-0.583 1.549-1.111 3.153-1.708 4.695-0.597 1.535-1.403 2.931-2.118 4.382s-1.417 3.042-2.215 4.507c-0.806 1.465-1.708 2.715-2.479 4.077-0.764 1.368-1.702 2.924-2.674 4.32-0.979 1.403-1.882 2.507-2.82 3.771s-2 2.75-3.090 4.063c-1.090 1.313-2.111 2.34-3.174 3.417-1.056 1.070-2.236 2.521-3.41 3.716-1.181 1.195-2.34 2.139-3.514 3.195-1.181 1.056-2.445 2.306-3.743 3.417-1.292 1.104-2.611 1.958-3.903 2.931-1.299 0.972-2.597 2.014-3.959 2.924-1.368 0.903-2.903 1.702-4.368 2.66-1.472 0.958-2.667 1.708-4.049 2.438-1.382 0.736-3.104 1.507-4.674 2.257s-2.799 1.417-4.25 2.028c-1.451 0.618-3.417 1.264-5.118 1.875-1.708 0.618-2.82 1.097-4.271 1.556-1.945 0.597-3.938 1.028-5.924 1.521-1.299 0.306-2.542 0.715-3.854 0.986-2.097 0.431-4.25 0.667-6.382 0.979-1.264 0.167-2.472 0.444-3.736 0.563-3.417 0.34-6.827 0.528-10.41 0.528-56.539-0.056-102.354-45.871-102.41-102.41h-136.593v170.665h187.742c4.528 0 8.869 1.799 12.063 5l44.26 44.26c18.578-8.841 36.641-18.724 54.108-29.599 2.014-1.257 4.264-2.083 6.619-2.424l104.834-14.966z" />
<glyph unicode="&#xe903;" glyph-name="clock-circular-outline" d="M512 960c-282.317 0-512-229.683-512-512s229.683-512 512-512 512 229.683 512 512-229.683 512-512 512zM512 44.945c-222.243 0-403.066 180.802-403.066 403.055s180.823 403.055 403.066 403.055 403.066-180.802 403.066-403.055-180.823-403.055-403.066-403.055zM778.834 463.809h-230.094v276.657c0 23.281-18.876 42.157-42.157 42.157s-42.157-18.876-42.157-42.157v-318.814c0-23.281 18.876-42.157 42.157-42.157h272.252c23.281 0 42.157 18.876 42.157 42.157s-18.876 42.157-42.157 42.157z" />
<glyph unicode="&#xe904;" glyph-name="departures" d="M832 789.328c-120.618 0-259.114-63.274-264.96-65.92-10.71-4.95-15.402-17.622-10.454-28.33 4.95-10.666 17.622-15.36 28.33-10.454 1.366 0.64 135.936 62.038 247.082 62.038 108.8 0 149.334-26.154 149.334-42.666 0-79.574-667.904-341.334-810.666-341.334-23.978 0-88.234 0-118.358 5.462 13.994 11.008 39.082 26.666 64.128 39.594 5.418 2.816 9.344 7.722 10.88 13.61s0.47 12.16-2.902 17.194l-75.606 113.45 19.414 19.414 156.886-78.464c5.974-2.986 13.056-2.986 19.072 0l128 64c10.538 5.29 14.848 18.090 9.558 28.63-5.29 10.496-18.090 14.806-28.63 9.514l-118.442-59.222-161.11 80.598c-8.234 4.096-18.134 2.518-24.618-4.010l-42.666-42.666c-7.21-7.21-8.32-18.474-2.688-26.922l72.32-108.458c-75.904-42.37-75.904-63.404-75.904-71.724 0-38.442 54.656-42.666 170.666-42.666 113.578 0 853.334 249.814 853.334 384 0 25.684-18.688 85.332-192 85.332zM639.83 685.308c-1.066 8.406-6.954 15.36-15.062 17.792l-426.666 128c-7.51 2.262-15.616 0.214-21.206-5.334l-85.334-85.334c-4.694-4.694-6.954-11.306-6.058-17.92s4.822-12.416 10.582-15.702l298.666-170.666c3.286-1.878 6.954-2.816 10.582-2.816 3.798 0 7.594 1.024 10.966 3.030l213.334 128c7.252 4.352 11.22 12.586 10.196 20.95zM405.034 579.366l-263.552 150.614 56.618 56.576 368.128-110.464-161.194-96.726zM960 767.996c-92.074 0-140.886-46.762-142.934-48.726-8.362-8.234-8.49-21.59-0.342-30.038 4.138-4.31 9.728-6.486 15.318-6.486 5.29 0 10.624 1.962 14.762 5.888 1.578 1.494 39.424 36.694 113.194 36.694 11.776 0 21.334 9.558 21.334 21.334s-9.556 21.334-21.332 21.334zM852.778 261.2l-64 256c-2.858 11.478-14.55 18.39-25.856 15.53-11.434-2.858-18.39-14.422-15.53-25.856l59.818-239.402-54.784-27.392-181.206 221.44c-7.51 9.174-20.95 10.496-30.038 3.030-9.13-7.51-10.496-20.95-3.030-30.038l192-234.666c4.138-5.12 10.282-7.85 16.512-7.85 3.242 0 6.486 0.726 9.642 2.304l85.334 42.666c8.92 4.48 13.57 14.55 11.138 24.234zM490.666 106.662h-469.332c-11.776 0-21.334-9.558-21.334-21.334s9.558-21.334 21.334-21.334h469.334c11.776 0 21.334 9.558 21.334 21.334-0.002 11.776-9.56 21.334-21.336 21.334z" />
<glyph unicode="&#xe905;" glyph-name="download" d="M819.57 403l-307.57-307.57-307.57 307.57 56.57 56.57 211-211v711.43h80v-711.43l211 211zM1024 16h-1024v-80h1024z" />
<glyph unicode="&#xe906;" glyph-name="female-and-male-silhouettes-with-a-vertical-line-in-the-middle" d="M222.165 313.537v-249.601c0-9.811-3.232-17.947-9.308-23.818-6.064-6.128-13.995-9.051-23.728-9.051-9.836 0-18.231 2.935-24.732 9.051-6.965 5.871-10.171 14.008-10.171 23.818v249.601h-93.522l97.307 328.587h-16.737c-10.673-36.834-19.66-66.459-26.702-89.968-6.334-23.393-13.364-45.602-19.467-66.974-6.939-21.102-11.6-34.465-12.064-39.023-4.236-13.943-13.467-20.702-27.938-20.702l-7.364 1.777c-13.493 4.995-20.072 13.724-20.072 26.161 0 3.399 0.476 6.193 1.841 8.999 0.966 2.408 3.759 10.66 7.030 24.668 3.759 13.892 8.806 31.17 14.896 51.254 6.064 20.406 12.63 42.499 19.505 66.202 7.030 23.831 13.467 46.761 21.372 68.867 4.661 16.93 14.896 32.367 30.732 45.705 15.771 13.827 32.174 20.123 49.297 20.123h114.469c17.703 0 34.903-6.296 50.263-20.123 14.935-13.403 25.672-28.762 31.659-45.705 6.412-22.106 12.965-45.036 19.441-68.867 6.63-23.702 13.596-45.795 19.196-66.202 5.935-20.097 11.137-37.362 14.793-51.254 3.708-14.008 6.103-22.26 7.403-24.668l1.828-7.364c0-15.038-7.030-23.831-20.496-27.693l-6.862-1.88c-14.832 0-24.166 6.772-27.874 20.702-1.030 4.558-5.201 17.934-10.699 39.023-6.502 21.372-13.132 43.568-20.561 66.974-7.442 23.432-16.171 53.134-26.831 90.033h-16.801l97.165-328.665h-92.028v-249.601c0-9.811-2.794-17.947-10.235-23.818-6.566-6.128-14.471-9.051-24.166-9.051-10.235 0-17.767 2.935-24.166 9.051-6.064 5.871-8.806 14.008-8.806 23.818v249.614h-16.866zM231.371 759.76c19.595 0 36.397 6.437 49.426 19.866 13.428 13.737 20.458 30.809 20.458 51.409 0 19.595-7.030 36.397-20.458 50.263-12.965 14.265-29.831 21.372-49.426 21.372-20.87 0-38.173-7.107-52.567-21.372-13.943-13.802-20.805-30.667-20.805-50.263 0-20.599 6.862-37.658 20.87-51.409 14.407-13.428 31.697-19.866 52.503-19.866zM745.135 741.337c-25.067 0-46.542-9.27-64.669-27.166-18.192-18.707-27.539-40.465-27.539-64.695v-224.006c0-8.394 2.871-15.99 9.347-22.132 6-6.064 13.467-8.806 21.926-8.806 9.733 0 17.201 2.742 23.2 8.806 5.201 6.141 7.944 13.724 7.944 22.132v200.304h16.196v-554.564c0-10.673 4.661-20.548 13.531-28.144 8.33-8.394 18.063-11.999 29.264-11.999 12.128 0 21.861 3.592 29.792 11.999 8.394 7.596 12.205 17.458 12.205 28.144v321.468h18.128v-321.468c0-10.673 4.197-20.548 12.076-28.144 7.931-8.394 18.192-11.999 30.732-11.999 10.66 0 20.007 3.592 28.402 11.999 7.866 7.596 11.471 17.458 11.471 28.144v554.564h16.93v-200.304c0-8.394 2.665-15.99 8.266-22.132 6.669-6.064 14.394-8.806 22.801-8.806 9.862 0 17.329 2.742 22.93 8.806 5.060 6.141 8.266 13.724 8.266 22.132v223.994c0 24.166-8.806 46.001-26.998 64.631-17.741 17.973-38.997 27.166-65.081 27.166l-159.118 0.077zM825.125 759.76c19.544 0 36.796 6.437 50.675 19.866 13.866 13.802 20.934 30.861 20.934 51.409 0 19.595-7.133 36.397-20.999 50.263-13.93 14.265-31.131 21.372-50.61 21.372-20.535 0-37.8-7.107-50.791-21.372-13.866-13.866-20.393-30.667-20.393-50.263 0-20.599 6.527-37.658 20.393-51.409 13.068-13.428 30.333-19.866 50.791-19.866zM577.069 960h-70.63v-1024h70.63v1024z" />
<glyph unicode="&#xe907;" glyph-name="hospital" d="M1005.714 667.428h-274.286v274.286c0 10.094-8.192 18.286-18.286 18.286h-402.284c-10.094 0-18.286-8.192-18.286-18.286v-274.286h-274.286c-10.094 0-18.286-8.192-18.286-18.286v-694.858c0-10.092 8.192-18.284 18.286-18.284h987.43c10.094 0 18.286 8.192 18.286 18.286v694.856c-0.002 10.094-8.194 18.286-18.288 18.286zM292.572-27.428h-256v658.286h256v-658.286zM566.858-27.428h-109.714v146.286h109.714v-146.286zM694.858 649.142v-676.572h-91.428v146.286h36.57v36.572h-256v-36.572h36.572v-146.286h-91.428v950.858h365.714v-274.286zM987.428-27.428h-256v658.286h256v-658.286zM237.714 594.286h-146.286c-10.094 0-18.286-8.192-18.286-18.286v-73.142c0-10.094 8.192-18.286 18.286-18.286h146.286c10.094 0 18.286 8.192 18.286 18.286v73.142c0 10.094-8.192 18.286-18.286 18.286zM146.286 521.142h-36.572v36.572h36.572v-36.572zM219.428 521.142h-36.57v36.572h36.572v-36.572zM237.714 448h-146.286c-10.094 0-18.286-8.192-18.286-18.286v-73.142c0-10.094 8.192-18.286 18.286-18.286h146.286c10.094 0 18.286 8.192 18.286 18.286v73.142c0 10.094-8.192 18.286-18.286 18.286zM146.286 374.858h-36.572v36.572h36.572v-36.572zM219.428 374.858h-36.57v36.572h36.572v-36.572zM237.714 301.714h-146.286c-10.094 0-18.286-8.192-18.286-18.286v-73.142c0-10.094 8.192-18.286 18.286-18.286h146.286c10.094 0 18.286 8.192 18.286 18.286v73.142c0 10.094-8.192 18.286-18.286 18.286zM146.286 228.572h-36.572v36.572h36.572v-36.572zM219.428 228.572h-36.57v36.572h36.572v-36.572zM932.572 594.286h-146.286c-10.094 0-18.286-8.192-18.286-18.286v-73.142c0-10.094 8.192-18.286 18.286-18.286h146.286c10.094 0 18.286 8.192 18.286 18.286v73.142c0 10.094-8.192 18.286-18.286 18.286zM841.142 521.142h-36.572v36.572h36.572v-36.572zM914.286 521.142h-36.572v36.572h36.572v-36.572zM932.572 448h-146.286c-10.094 0-18.286-8.192-18.286-18.286v-73.142c0-10.094 8.192-18.286 18.286-18.286h146.286c10.094 0 18.286 8.192 18.286 18.286v73.142c0 10.094-8.192 18.286-18.286 18.286zM841.142 374.858h-36.572v36.572h36.572v-36.572zM914.286 374.858h-36.572v36.572h36.572v-36.572zM932.572 301.714h-146.286c-10.094 0-18.286-8.192-18.286-18.286v-73.142c0-10.094 8.192-18.286 18.286-18.286h146.286c10.094 0 18.286 8.192 18.286 18.286v73.142c0 10.094-8.192 18.286-18.286 18.286zM841.142 228.572h-36.572v36.572h36.572v-36.572zM914.286 228.572h-36.572v36.572h36.572v-36.572zM621.714 813.714h-54.858v54.858c0 10.094-8.192 18.286-18.286 18.286h-73.142c-10.094 0-18.286-8.192-18.286-18.286v-54.858h-54.858c-10.094 0-18.286-8.192-18.286-18.286v-73.142c0-10.094 8.192-18.286 18.286-18.286h54.858v-54.858c0-10.094 8.192-18.286 18.286-18.286h73.142c10.094 0 18.286 8.192 18.286 18.286v54.858h54.858c10.094 0 18.286 8.192 18.286 18.286v73.142c0 10.094-8.192 18.286-18.286 18.286zM603.428 740.572h-54.858c-10.094 0-18.286-8.192-18.286-18.286v-54.858h-36.572v54.858c0 10.094-8.192 18.286-18.286 18.286h-54.858v36.57h54.858c10.094 0 18.286 8.192 18.286 18.286v54.858h36.572v-54.858c0-10.094 8.192-18.286 18.286-18.286h54.858v-36.57zM475.428 594.286h-73.142c-10.094 0-18.286-8.192-18.286-18.286v-73.142c0-10.094 8.192-18.286 18.286-18.286h73.142c10.094 0 18.286 8.192 18.286 18.286v73.142c0 10.094-8.192 18.286-18.286 18.286zM457.142 521.142h-36.572v36.572h36.572v-36.572zM621.714 594.286h-73.142c-10.094 0-18.286-8.192-18.286-18.286v-73.142c0-10.094 8.192-18.286 18.286-18.286h73.142c10.094 0 18.286 8.192 18.286 18.286v73.142c0 10.094-8.192 18.286-18.286 18.286zM603.428 521.142h-36.572v36.572h36.572v-36.572zM475.428 448h-73.142c-10.094 0-18.286-8.192-18.286-18.286v-73.142c0-10.094 8.192-18.286 18.286-18.286h73.142c10.094 0 18.286 8.192 18.286 18.286v73.142c0 10.094-8.192 18.286-18.286 18.286zM457.142 374.858h-36.572v36.572h36.572v-36.572zM621.714 448h-73.142c-10.094 0-18.286-8.192-18.286-18.286v-73.142c0-10.094 8.192-18.286 18.286-18.286h73.142c10.094 0 18.286 8.192 18.286 18.286v73.142c0 10.094-8.192 18.286-18.286 18.286zM603.428 374.858h-36.572v36.572h36.572v-36.572zM475.428 301.714h-73.142c-10.094 0-18.286-8.192-18.286-18.286v-73.142c0-10.094 8.192-18.286 18.286-18.286h73.142c10.094 0 18.286 8.192 18.286 18.286v73.142c0 10.094-8.192 18.286-18.286 18.286zM457.142 228.572h-36.572v36.572h36.572v-36.572zM621.714 301.714h-73.142c-10.094 0-18.286-8.192-18.286-18.286v-73.142c0-10.094 8.192-18.286 18.286-18.286h73.142c10.094 0 18.286 8.192 18.286 18.286v73.142c0 10.094-8.192 18.286-18.286 18.286zM603.428 228.572h-36.572v36.572h36.572v-36.572zM73.142 155.428h36.572v-36.572h-36.572v36.572zM146.286 155.428h36.572v-36.572h-36.572v36.572zM219.428 155.428h36.572v-36.572h-36.572v36.572zM768 155.428h36.572v-36.572h-36.572v36.572zM841.142 155.428h36.572v-36.572h-36.572v36.572zM914.286 155.428h36.572v-36.572h-36.572v36.572z" />
<glyph unicode="&#xe908;" horiz-adv-x="1019" d="M0.187-64c0 318.249-0.662 617.239 0.509 916.23 0.272 67.199 40.656 106.7 108.059 106.972 267.404 1.053 534.824 1.087 802.228-0.034 66.808-0.289 106.887-40.724 107.311-107.821 1.308-199.508 1.393-399-0.017-598.508-0.509-71.513-42.592-108.042-119.963-108.245-214.351-0.56-428.719-1.053-643.053 0.628-36.954 0.289-63.701-9.238-88.682-36.784-49.622-54.751-102.454-106.581-166.393-172.438z" />
<glyph unicode="&#xe909;" horiz-adv-x="1019" d="M456.773 445.317c13.926 55.549 44.748 88.58 66.248 126.569 12.448 21.975 26.323 43.78 34.44 67.403 8.372 24.336-1.291 46.837-24.522 59.285-23.487 12.584-50.454 9.12-61.051-14.333-22.926-50.794-61.153-31.825-98.718-29.125-25.473 1.834-15.675 19.733-12.278 31.859 16.609 59.234 52.73 102.403 113.883 116.006 63.089 14.027 118.367-5.553 156.866-58.453 36.699-50.471 42.252-104.662 6.487-159.6-25.304-38.89-48.79-78.985-74.824-117.382-26.391-38.94-58.351-22.23-106.53-22.23z" />
<glyph unicode="&#xe90a;" horiz-adv-x="1019" d="M506.786 247.609c-54.547-2.615-47.16 15.488-49.877 51.609-3.43 45.903 17.067 48.349 54.343 50.556 45.903 2.7 48.637-17.186 50.454-54.547 2.191-44.952-5.451-49.894-54.921-47.618z" />
<glyph unicode="&#xe90b;" horiz-adv-x="765" d="M729.305 888.585c-5.371 51.082-28.409 74.312-84.478 71.127-85.974-4.891-172.447-1.285-258.709-1.285-50.315 0-100.649 0-150.963 0-200.837 0-196.368-0.575-222.302-202.698-20.084-156.526-8.67-307.72-12.852-469.138-1.189-45.327 12.104-86.972 48.723-114.364 24.246-18.127 38.383-40.685 52.808-65.507 132.376-227.98 427.915-227.423 560.675 0.633 11.797 20.295 18.933 42.604 41.107 56.913 46.497 30.020 60.903 76.978 61.306 129.978zM88.526 579.215c6.445 83.346 16.036 166.482 22.040 249.847 2.685 37.175 19.815 46.478 54.727 45.251 71.703-2.455 143.54-0.729 215.339-0.729s143.655-2.187 215.319 0.863c39.669 1.688 54.266-11.586 56.837-50.967 5.294-81.025 15.269-161.763 22.597-242.654 2.129-23.402 7.462-49.471-31.919-47.495-27.104 1.362-46.958-0.959-54.266 37.635-17.59 93.033-76.326 153.38-170.644 170.548-84.823 15.422-155.452-14.195-208.107-83.116-19.048-24.918-35.007-53.019-36.331-84.497-1.841-43.889-30.212-40.014-59.733-40.244-37.252-0.269-27.296 26.951-25.858 45.558zM507.406 536.113c1.093-72.010-52.195-127.484-123.514-128.655-71.78-1.189-127.504 52.348-128.885 123.763-1.381 71.856 52.156 127.254 124.051 128.348 72.508 1.113 127.273-51.562 128.348-123.456zM631.764 223.080c-18.492-14.809-20.698-36.523-30.672-54.899-47.879-88.046-116.819-143.904-215.224-146.206-74.331 2.033-130.036 29.138-177.646 77.918-44.042 45.155-57.719 109.645-112.753 150.848-40.359 30.231-4.412 104.792 44.809 124.511 49.854 19.969 84.708 16.343 130.304-19.086 81.927-63.646 206.055-45.059 269.528 40.896 46.9 63.512 75.156 32.993 108.187-4.297 49.087-55.436 42.335-122.42-16.535-169.685z" />
<glyph unicode="&#xe90c;" horiz-adv-x="765" d="M421.854 533.619c-2.206-24.879-14.578-39.477-40.704-39.803-26.836-0.326-40.187 16.382-40.34 39.956-0.153 23.958 14.176 40.033 40.455 39.745 25.838-0.288 38.69-14.789 40.589-39.899z" />
<glyph unicode="&#xe90d;" glyph-name="icons8-eye-96" horiz-adv-x="1387" d="M690.401-64c-288.216 0.959-581.609 206.398-684.989 481.425-6.562 17.429-7.756 42.486-0.234 58.806 202.605 439.536 630.678 586.403 992.445 412.455 177.463-85.312 297.442-229.303 381.603-404.209 8.928-18.579 10.44-46.768 3.345-66.072-101.654-276.604-399.799-483.364-692.169-482.405zM687.141 127.952c175.738-3.345 322.839 137.705 326.184 312.782 3.345 175.972-137.492 322.796-312.782 326.078-176.292 3.281-322.796-137.194-326.014-312.654-3.239-176.334 137.194-322.86 312.612-326.206zM502.753 446.359c-0.554 104.872 87.294 192.762 192.101 192.208 104.978-0.554 191.931-89.296 190.248-194.147-1.641-101.697-86.527-186.647-188.202-188.287-104.829-1.726-193.571 85.248-194.147 190.226z" />
<glyph unicode="&#xe90e;" glyph-name="noun_Arrow_941551" horiz-adv-x="1376" d="M53.892 394.107h1138.49l-366.484-366.484c-21.558-21.558-21.558-53.897 0-75.452 10.778-10.78 26.948-16.17 37.726-16.17s26.948 5.39 37.726 16.17l458.105 458.105c21.558 21.558 21.558 53.897 0 75.452l-458.105 458.105c-21.558 21.558-53.894 21.558-75.452 0-21.558-21.556-21.558-53.894 0-75.452l366.484-366.484h-1138.49c-32.336 0-53.894-21.556-53.894-53.894s21.558-53.894 53.894-53.894z" />
<glyph unicode="&#xe90f;" glyph-name="noun_Money_1199808" horiz-adv-x="1279" d="M1217.805 699.285v119.473c0 77.899-63.344 141.242-141.242 141.242h-935.32c-77.898 0-141.242-63.344-141.242-141.242v-741.464c0-77.924 63.345-141.294 141.242-141.294h935.294c77.898 0 141.242 63.37 141.242 141.294v119.422c36.884 21.895 61.66 62.146 61.66 108.105v286.36c0.027 45.959-24.751 86.209-61.634 108.105zM1090.353 77.294c0-7.648-6.195-13.842-13.791-13.842h-935.319c-7.596 0-13.79 6.195-13.79 13.842v741.464c0 7.596 6.194 13.791 13.79 13.791h935.294c7.596 0 13.79-6.195 13.79-13.791v-101.91h-265.457c-69.308 0-125.693-56.385-125.693-125.668v-286.36c0-69.283 56.385-125.668 125.693-125.668h265.484v-101.858zM1152.013 306.605l-325.384-1.785-1.759 284.575h327.144v-282.79zM931.165 392.202c16.824 0 33.392 6.883 45.118 18.838 12.006 11.726 18.609 28.295 18.609 44.889 0 16.798-6.627 33.392-18.609 45.118-23.706 23.706-66.505 23.706-89.956 0-12.006-11.726-18.863-28.295-18.863-45.118 0-16.569 6.883-33.163 18.863-45.143 11.699-11.727 28.243-18.584 44.837-18.584z" />
<glyph unicode="&#xe910;" glyph-name="star" d="M561.448 906.899l115.494-234.021c8.031-16.276 23.56-27.554 41.524-30.16l258.264-37.53c45.241-6.579 63.29-62.158 30.566-94.048l-186.879-182.158c-12.987-12.666-18.925-30.929-15.849-48.808l44.108-257.218c7.732-45.048-39.559-79.395-80.015-58.142l-230.987 121.432c-16.063 8.437-35.265 8.437-51.328 0l-230.987-121.432c-40.456-21.275-87.747 13.094-80.015 58.142l44.108 257.218c3.076 17.878-2.862 36.141-15.849 48.808l-186.879 182.158c-32.724 31.912-14.674 87.491 30.566 94.048l258.264 37.53c17.964 2.606 33.493 13.884 41.524 30.16l115.494 234.021c20.207 40.99 78.648 40.99 98.876 0z" />
<glyph unicode="&#xe911;" glyph-name="swimming-pool-1" d="M1016.302 4.844c-21.092 16.744-50.534 16.718-71.608-0.060l-31.228-24.874c-6.424-5.114-15.402-5.124-21.834-0.020l-31.456 24.962c-21.092 16.738-50.532 16.714-71.606-0.066l-31.192-24.844c-6.432-5.124-15.42-5.124-21.856 0l-31.2 24.848c-21.064 16.776-50.51 16.798-71.604 0.060l-31.492-24.994c-6.42-5.096-15.386-5.094-21.806 0l-31.5 24.996c-21.092 16.738-50.534 16.714-71.606-0.066l-31.23-24.874c-6.424-5.116-15.4-5.124-21.832-0.018l-31.492 24.996c-21.060 16.72-50.48 16.716-71.542-0.006l-31.482-24.998c-6.432-5.106-15.412-5.102-21.836 0.016l-31.234 24.882c-21.064 16.782-50.514 16.808-71.61 0.064l-31.484-24.988c-6.42-5.096-15.388-5.096-21.808 0.002l-31.54 25.034c-21.060 16.716-50.472 16.714-71.53 0.002-8.648-6.864-10.098-19.44-3.232-28.090s19.438-10.098 28.092-3.234c6.418 5.092 15.386 5.094 21.808 0l31.538-25.034c21.058-16.716 50.472-16.716 71.532-0.002l31.484 24.988c6.432 5.104 15.41 5.096 21.834-0.020l31.234-24.882c21.070-16.788 50.522-16.81 71.62-0.056l31.482 24.998c6.416 5.098 15.388 5.1 21.812 0.002l31.49-24.996c21.094-16.746 50.538-16.722 71.61 0.060l31.228 24.874c6.418 5.114 15.396 5.124 21.834 0.020l31.5-24.994c10.528-8.356 23.142-12.532 35.76-12.532 12.616 0 25.236 4.178 35.764 12.534l31.492 24.994c6.426 5.102 15.404 5.096 21.83-0.018l31.2-24.848c21.104-16.806 50.582-16.806 71.684 0.002l31.19 24.844c6.418 5.114 15.396 5.124 21.834 0.020l31.456-24.968c21.098-16.736 50.536-16.708 71.606 0.066l31.23 24.874c6.42 5.116 15.394 5.126 21.832 0.020 8.65-6.864 21.224-5.416 28.092 3.232 6.868 8.65 5.424 21.226-3.228 28.092zM1016.304 134.384c-21.094 16.746-50.538 16.722-71.61-0.058l-31.23-24.874c-6.42-5.116-15.396-5.124-21.832-0.020l-31.456 24.964c-21.098 16.736-50.536 16.71-71.606-0.066l-31.192-24.844c-6.434-5.122-15.418-5.124-21.856 0l-31.2 24.848c-21.068 16.776-50.51 16.8-71.604 0.060l-31.492-24.994c-6.42-5.094-15.386-5.094-21.806 0l-31.5 24.996c-21.098 16.736-50.54 16.71-71.606-0.066l-31.23-24.874c-6.424-5.116-15.4-5.124-21.832-0.018l-31.492 24.996c-21.064 16.718-50.48 16.716-71.542-0.006l-31.482-24.998c-6.432-5.106-15.412-5.102-21.836 0.016l-31.234 24.88c-21.068 16.782-50.512 16.806-71.61 0.066l-31.484-24.988c-6.42-5.096-15.388-5.094-21.808 0l-31.54 25.036c-21.056 16.712-50.468 16.714-71.53 0-8.65-6.866-10.098-19.442-3.232-28.092 6.864-8.65 19.438-10.098 28.090-3.234 6.42 5.096 15.388 5.094 21.808 0l31.538-25.036c21.060-16.716 50.474-16.714 71.532-0.002l31.482 24.988c6.434 5.104 15.414 5.094 21.836-0.020l31.234-24.88c21.070-16.788 50.522-16.81 71.62-0.056l31.482 24.998c6.416 5.1 15.388 5.1 21.812 0.002l31.49-24.996c21.094-16.746 50.538-16.72 71.61 0.060l31.228 24.874c6.428 5.116 15.402 5.122 21.834 0.020l31.5-24.994c10.528-8.356 23.144-12.532 35.76-12.532 12.618 0 25.236 4.178 35.764 12.534l31.492 24.994c6.426 5.104 15.404 5.098 21.83-0.018l31.2-24.848c21.102-16.806 50.576-16.804 71.684 0.002l31.19 24.844c6.424 5.116 15.402 5.122 21.834 0.020l31.456-24.962c21.094-16.74 50.54-16.71 71.606 0.066l31.23 24.874c6.424 5.118 15.402 5.122 21.83 0.018 8.648-6.866 21.226-5.418 28.092 3.23 6.872 8.65 5.426 21.226-3.222 28.090zM1016.302 263.929c-21.094 16.746-50.54 16.72-71.608-0.060l-31.228-24.874c-6.422-5.112-15.4-5.124-21.834-0.020l-31.456 24.962c-21.094 16.74-50.536 16.712-71.606-0.066l-31.19-24.844c-6.436-5.124-15.422-5.122-21.858 0l-31.2 24.846c-21.064 16.776-50.506 16.802-71.604 0.062l-31.492-24.994c-6.42-5.096-15.386-5.094-21.806 0l-31.5 24.996c-21.092 16.738-50.534 16.714-71.606-0.064l-31.226-24.874c-6.424-5.114-15.4-5.124-21.832-0.018l-31.492 24.996c-21.064 16.72-50.48 16.714-71.542-0.006l-31.48-24.998c-6.436-5.108-15.414-5.1-21.838 0.016l-31.234 24.882c-21.064 16.782-50.514 16.806-71.61 0.064l-31.484-24.988c-6.42-5.096-15.388-5.094-21.808 0l-31.54 25.036c-21.056 16.71-50.468 16.714-71.53 0-8.648-6.864-10.098-19.44-3.232-28.090s19.438-10.098 28.092-3.234c6.42 5.098 15.388 5.092 21.808 0l31.538-25.036c21.058-16.714 50.472-16.716 71.532-0.002l31.484 24.988c6.43 5.104 15.408 5.098 21.834-0.020l31.234-24.882c21.070-16.784 50.522-16.808 71.62-0.056l31.482 24.998c6.416 5.098 15.388 5.1 21.812 0.002l31.492-24.996c21.094-16.746 50.54-16.72 71.608 0.060l31.228 24.874c6.418 5.114 15.396 5.124 21.834 0.020l31.5-24.994c10.528-8.356 23.142-12.532 35.76-12.532 12.616 0 25.236 4.178 35.764 12.534l31.492 24.994c6.426 5.102 15.404 5.096 21.83-0.020l31.2-24.846c21.104-16.804 50.578-16.806 71.684 0.002l31.19 24.844c6.418 5.114 15.396 5.124 21.834 0.020l31.456-24.962c21.094-16.74 50.536-16.71 71.606 0.064l31.23 24.876c6.424 5.116 15.4 5.122 21.832 0.018 8.65-6.864 21.224-5.416 28.092 3.232 6.864 8.65 5.42 21.226-3.232 28.090zM859.912 960c-90.406 0-163.958-73.55-163.958-163.958v-215.746h-359.899v72.18h214.796c11.042 0 19.994 8.952 19.994 19.994s-8.954 19.994-19.994 19.994h-214.796v103.578c0 68.356 55.612 123.968 123.968 123.968s123.968-55.612 123.968-123.968v-42.39c0-11.044 8.954-19.994 19.994-19.994s19.994 8.952 19.994 19.994v42.39c0 90.408-73.55 163.958-163.956 163.958s-163.958-73.55-163.958-163.958v-161.958h-203.29c-11.042 0-19.994-8.952-19.994-19.994s8.954-19.994 19.994-19.994h203.29v-291.925c0-11.044 8.954-19.994 19.994-19.994s19.994 8.952 19.994 19.994v14.392h359.899v-14.392c0-11.044 8.954-19.994 19.994-19.994s19.994 8.952 19.994 19.994v493.871c0 68.356 55.612 123.968 123.968 123.968s123.968-55.612 123.968-123.968v-42.39c0-11.044 8.954-19.994 19.994-19.994s19.994 8.952 19.994 19.994v42.39c0.004 90.408-73.548 163.958-163.952 163.958zM695.953 356.551h-359.899v71.586h359.899v-71.586zM695.953 468.127h-359.899v72.18h359.899v-72.18zM644.105 686.611c-3.718 3.718-8.876 5.858-14.134 5.858s-10.418-2.14-14.136-5.858c-3.722-3.72-5.858-8.876-5.858-14.136 0-5.278 2.138-10.418 5.858-14.136 3.718-3.74 8.858-5.858 14.136-5.858 5.258 0 10.418 2.12 14.134 5.858 3.718 3.718 5.86 8.878 5.86 14.136s-2.14 10.416-5.86 14.136zM34.262 628.225c-3.718 3.718-8.858 5.858-14.134 5.858-5.258 0-10.418-2.14-14.136-5.858s-5.858-8.878-5.858-14.136 2.138-10.418 5.858-14.136c3.718-3.718 8.878-5.858 14.136-5.858s10.418 2.14 14.134 5.858c3.72 3.72 5.86 8.878 5.86 14.136s-2.138 10.418-5.86 14.136zM1003.874 634.083h-202.948c-11.042 0-19.994-8.952-19.994-19.994s8.954-19.994 19.994-19.994h202.948c11.042 0 19.994 8.952 19.994 19.994s-8.952 19.994-19.994 19.994z" />
<glyph unicode="&#xe912;" glyph-name="train" d="M569.521 693.398h-490.775v-42.642h490.775c46.359 0 102.497-20.916 156.731-50.787-27.746-6.986-48.377-32.081-48.377-61.966v-54.468c0-35.272 28.691-63.963 63.963-63.963h161.031c9.58 0 18.862 2.139 27.291 6.112 3.426-6.865 5.33-12.928 5.33-17.895v-7.107c0-50.815-41.334-92.157-92.157-92.157h-764.587v-42.642h62.044c1.038-12.75 5.181-24.612 11.691-34.86h-73.735v-42.642h817.74v42.642h-125.304c6.51 10.248 10.646 22.11 11.691 34.86h70.971v0.533c69.421 5.394 124.287 63.487 124.287 134.266v7.107c0 90.934-256.528 285.61-408.611 285.61zM902.875 462.214h-161.031c-11.755 0-21.321 9.566-21.321 21.321v54.475c0 11.755 9.566 21.321 21.321 21.321h49.678c45.862-31.91 86.144-67.147 112.383-97.004-0.355-0.014-0.689-0.114-1.031-0.114zM217.539 237.732c-16.837 0-30.83 12.167-33.794 28.158h67.573c-2.957-15.991-16.943-28.158-33.78-28.158zM329.019 237.732c-16.837 0-30.83 12.167-33.794 28.158h67.573c-2.957-15.991-16.95-28.158-33.78-28.158zM394.070 231.030c6.503 10.248 10.646 22.11 11.684 34.86h112.163c1.031-12.75 5.181-24.612 11.691-34.86h-135.538zM594.658 237.732c-16.837 0-30.83 12.167-33.801 28.158h67.573c-2.957-15.991-16.943-28.158-33.773-28.158zM706.139 237.732c-16.837 0-30.83 12.167-33.801 28.158h67.573c-2.957-15.991-16.95-28.158-33.773-28.158zM552.002 436.145c35.272 0 63.963 28.691 63.963 63.963v37.902c0 35.272-28.691 63.963-63.963 63.963h-430.614c-35.272 0-63.963-28.691-63.963-63.963v-37.902c0-35.272 28.691-63.963 63.963-63.963h430.614zM487.719 559.331h64.283c11.755 0 21.321-9.566 21.321-21.321v-37.902c0-11.755-9.566-21.321-21.321-21.321h-64.283v80.544zM358.016 559.331h87.061v-80.544h-87.061v80.544zM228.313 559.331h87.061v-80.544h-87.061v80.544zM100.067 500.109v37.902c0 11.755 9.566 21.321 21.321 21.321h64.283v-80.544h-64.283c-11.755 0-21.321 9.566-21.321 21.321z" />
<glyph unicode="&#xe913;" glyph-name="trash-can" d="M184.41 660l53.136-641.47c3.81-46.26 43.214-82.53 89.65-82.53h369.61c46.436 0 85.84 36.27 89.648 82.53l53.136 641.47h-655.18zM422 86c0-16.582-13.418-30-30-30s-30 13.418-30 30v484c0 16.582 13.418 30 30 30s30-13.418 30-30v-484zM542 86c0-16.582-13.418-30-30-30s-30 13.418-30 30v484c0 16.582 13.418 30 30 30s30-13.418 30-30v-484zM662 86c0-16.582-13.418-30-30-30s-30 13.418-30 30v484c0 16.582 13.418 30 30 30s30-13.418 30-30v-484zM812 840h-150v30c0 49.628-40.372 90-90 90h-120c-49.628 0-90-40.372-90-90v-30h-150c-49.706 0-90-40.294-90-90 0-16.568 13.432-30 30-30h720c16.568 0 30 13.432 30 30 0 49.706-40.294 90-90 90zM602 840h-180v30c0 16.552 13.448 30 30 30h120c16.552 0 30-13.448 30-30v-30z" />
<glyph unicode="&#xe914;" horiz-adv-x="1061" d="M516.899 287.222l-154.15-118.78-40.999-136.731z" />
<glyph unicode="&#xe915;" horiz-adv-x="1061" d="M259.314 521.185l143.017 43.959-37.127-79.115z" />
<glyph unicode="&#xe916;" horiz-adv-x="1061" d="M529.865 958.845l-6.915-311.177-149.538-146.945z" />
<glyph unicode="&#xe917;" horiz-adv-x="1061" d="M373.412 482.862l150.976 153.286-75.485-229.925z" />
<glyph unicode="&#xe918;" horiz-adv-x="1061" d="M325.007 33.958l111.505 353.089-114.389-67.553-123.89-383.494z" />
<glyph unicode="&#xe919;" horiz-adv-x="1061" d="M334.086 36.552l189.728 238.569v-111.069z" />
<glyph unicode="&#xe91a;" horiz-adv-x="1061" d="M112.369 486.029l268.822 81.687h-381.192z" />
<glyph unicode="&#xe91b;" horiz-adv-x="1061" d="M249.806 516.718l-122.742-37.604 195.786-149.102 117.12 71.308-76.93 74.772z" />
<glyph unicode="&#xe91c;" horiz-adv-x="1061" d="M543.695 288.377l154.15-118.78 40.999-136.731z" />
<glyph unicode="&#xe91d;" horiz-adv-x="1061" d="M801.28 522.333l-143.017 43.966 37.134-79.115z" />
<glyph unicode="&#xe91e;" horiz-adv-x="1061" d="M530.729 960l6.915-311.177 149.538-146.945z" />
<glyph unicode="&#xe91f;" horiz-adv-x="1061" d="M687.182 484.017l-150.976 153.279 75.485-229.925z" />
<glyph unicode="&#xe920;" horiz-adv-x="1061" d="M735.588 35.113l-111.505 353.089 114.389-67.553 123.89-383.501z" />
<glyph unicode="&#xe921;" horiz-adv-x="1061" d="M726.515 37.706l-189.735 238.569v-111.076z" />
<glyph unicode="&#xe922;" horiz-adv-x="1061" d="M948.225 487.184l-268.822 81.68h381.192z" />
<glyph unicode="&#xe923;" horiz-adv-x="1061" d="M810.789 517.866l122.742-37.597-195.779-149.109-117.127 71.315 76.93 74.765z" />
<glyph unicode="&#xe924;" glyph-name="arrow" horiz-adv-x="1723" d="M0 960h1723.328l-861.664-1024z" />
<glyph unicode="&#xe925;" glyph-name="bedroom" d="M300.006 248.384c0-15.348 0-30.071 0-45.356-39.156 0-77.161 0-116.963 0 0 4.719 0 9.257 0 13.795 0 127.252 0.192 254.508-0.317 381.76-0.047 11.939 4.236 18.583 13.763 24.279 39.337 23.517 81.711 39.535 126.077 49.935 135.255 31.712 270.115 30.627 404.128-7.322 35.040-9.923 68.454-23.983 99.788-42.839 9.524-5.731 13.74-12.393 13.693-24.297-0.509-126.889-0.317-253.777-0.317-380.669 0-4.652 0-9.306 0-14.595-39.209 0-77.257 0-116.849 0 0 14.717 0 29.725 0 45.312-141.641-0.003-281.743-0.003-423.002-0.003zM253.312 295.465c172.919 0 343.98 0 516.428 0 0-15.811 0-30.871 0-45.527 8.48 0 15.535 0 22.406 0 0 62.572 0 124.244 0 185.917-187.683 0-374.694 0-561.661 0 0-62.499 0-124.145 0-186.135 7.724 0 14.778 0 22.828 0 0 15.424 0 30.205 0 45.745zM276.873 484.401c0 16.16 0.919 31.092-0.291 45.85-0.972 11.855 3.863 17.577 14.051 22.127 69.754 31.171 140.349 33.213 212.175 7.764 5.12-1.815 12.009-1.777 17.135 0.044 71.052 25.231 140.983 23.215 210.237-6.857 11.674-5.071 17.516-11.584 16.163-25.233-1.411-14.257-0.314-28.762-0.314-43.628 16.233 0 30.95 0 46.79 0 0 31.34-0.265 62.147 0.195 92.943 0.108 7.281-2.054 11.878-8.593 14.391-30.060 11.549-59.421 25.757-90.365 34.016-96.073 25.647-193.876 27.729-292.073 14.909-51.677-6.746-101.879-19.479-149.702-40.928-15.991-7.171-26.988-15.988-22.609-35.692 1.079-4.849 0.16-10.144 0.16-15.235 0-21.338 0-42.676 0-64.471 16.023 0 30.796 0 47.043 0zM323.671 484.812c55.578 0 109.504 0 163.985 0 0 7.404-0.497 13.964 0.128 20.416 0.751 7.759-1.751 12.349-9.644 14.048-14.505 3.121-28.785 7.974-43.439 9.585-34.569 3.802-68.972 2.397-102.001-10.089-3.593-1.359-8.099-5.408-8.62-8.765-1.26-8.087-0.41-16.503-0.41-25.196zM698.653 484.401c0.151 3.078 0.305 4.867 0.317 6.659 0.035 5.812 0.78 11.77-0.268 17.388-0.64 3.441-3.404 8.212-6.327 9.245-50.025 17.713-100.279 17.46-150.447 0.463-2.641-0.896-6.356-3.744-6.528-5.926-0.73-9.21-0.308-18.513-0.308-27.831 55.331 0.003 108.992 0.003 163.561 0.003zM512 907.636c122.772 0 238.199-47.811 325.012-134.624s134.624-202.24 134.624-325.012-47.811-238.199-134.624-325.012c-86.813-86.813-202.24-134.624-325.012-134.624s-238.199 47.811-325.012 134.624c-86.813 86.813-134.624 202.24-134.624 325.012s47.811 238.199 134.624 325.012c86.813 86.813 202.24 134.624 325.012 134.624zM512 960c-282.769 0-512-229.231-512-512s229.231-512 512-512 512 229.231 512 512-229.231 512-512 512v0z" />
<glyph unicode="&#xe926;" glyph-name="calendar-icon" d="M592.844 421.080v0c-29.799 0-53.896-24.128-53.896-53.923 0-29.74 24.155-53.896 53.896-53.896v0c29.74 0 53.896 24.155 53.896 53.896 0.003 29.795-24.101 53.923-53.896 53.923zM431.156 474.948c29.754 0 53.896 24.142 53.896 53.896 0 29.775-24.142 53.889-53.896 53.889-29.747 0-53.889-24.114-53.889-53.889 0-29.754 24.142-53.896 53.889-53.896zM592.844 582.733v0c-29.799 0-53.896-24.114-53.896-53.889 0-29.754 24.101-53.896 53.896-53.896v0c29.74 0 53.896 24.142 53.896 53.896 0.003 29.775-24.101 53.889-53.896 53.889zM646.743 852.215h-269.476v-107.792h269.476v107.792zM754.535 474.948c29.727 0 53.896 24.142 53.896 53.896 0 29.775-24.114 53.889-53.896 53.889-29.799 0-53.896-24.114-53.896-53.889 0-29.754 24.155-53.896 53.896-53.896zM754.535 313.26c29.727 0 53.896 24.155 53.896 53.896 0 29.795-24.114 53.896-53.896 53.896-29.799 0-53.896-24.101-53.896-53.896 0-29.74 24.155-53.896 53.896-53.896zM431.156 313.26c29.754 0 53.896 24.155 53.896 53.896 0 29.795-24.114 53.923-53.896 53.923-29.775 0-53.889-24.128-53.889-53.923 0-29.74 24.142-53.896 53.889-53.896zM269.476 151.57c29.747 0 53.896 24.169 53.896 53.896 0 29.795-24.149 53.896-53.896 53.896-29.775 0-53.896-24.101-53.896-53.896 0-29.727 24.145-53.896 53.896-53.896zM916.208 852.215h-53.879v-107.792h53.879v-700.629h-808.417v700.625h53.889v107.795h-53.889c-59.529 0-107.792-48.246-107.792-107.795v-700.604c0-59.563 48.263-107.819 107.792-107.819h808.413c59.539 0 107.792 48.259 107.792 107.819v700.604c0.003 59.549-48.253 107.795-107.788 107.795zM269.476 313.26c29.747 0 53.896 24.155 53.896 53.896 0 29.795-24.149 53.923-53.896 53.923-29.775 0-53.896-24.128-53.896-53.923 0-29.74 24.145-53.896 53.896-53.896zM269.476 474.948c29.747 0 53.896 24.142 53.896 53.896 0 29.775-24.149 53.889-53.896 53.889-29.775 0-53.896-24.114-53.896-53.889 0-29.754 24.145-53.896 53.896-53.896zM431.156 151.57c29.754 0 53.896 24.169 53.896 53.896 0 29.795-24.142 53.896-53.896 53.896-29.747 0-53.889-24.101-53.889-53.896 0-29.727 24.142-53.896 53.889-53.896zM269.476 744.42c29.747 0 53.896 24.142 53.896 53.896v107.785c0 29.785-24.121 53.899-53.896 53.899-29.751 0-53.896-24.114-53.896-53.896v-107.785c0-29.758 24.145-53.899 53.896-53.899zM754.535 744.42c29.727 0 53.896 24.142 53.896 53.896v107.785c0 29.785-24.169 53.899-53.896 53.899-29.799 0-53.896-24.114-53.896-53.896v-107.785c0-29.758 24.155-53.899 53.896-53.899z" />
<glyph unicode="&#xe927;" glyph-name="home-page" horiz-adv-x="1023" d="M1005.31 568.729c-46.637 38.074-93.134 76.328-140.068 114.035-9.081 7.297-13.041 14.755-12.87 26.826 0.759 53.372 0.608 106.758 0.216 160.135-0.231 31.586-16.414 47.22-47.637 47.461-10.046 0.080-20.097 0.040-30.143 0.005-33.013-0.111-49.557-16.348-49.999-49.567-0.291-21.896-0.055-43.793-0.055-69.579-61.709 50.582-120.232 98.642-178.86 146.576-25.032 20.464-42.602 20.374-66.9 0.513-114.101-93.265-228.251-186.459-342.367-279.698-39.828-32.541-79.761-64.945-119.332-97.793-16.343-13.569-21.067-31.46-14.328-48.688 7.156-18.298 21.067-27.394 42.516-27.711 6.905-0.101 13.931-0.829 20.7 0.146 15.423 2.221 19.861-3.171 19.786-19.157-0.668-146.319 0.935-292.664-1.075-438.963-0.754-54.985 35.817-97.672 96.225-97.265 221.045 1.488 442.109 0.518 663.164 0.633 60.252 0.030 94.275 34.36 94.295 94.571 0.045 147.581 0.206 295.162-0.302 442.743-0.045 13.519 2.297 19.137 17.077 17.625 12.328-1.261 25.439-1.372 37.355 1.518 15.328 3.719 25.836 14.358 29.354 30.907 3.97 18.695-2.488 33.083-16.75 44.728zM640.253 192.364c0-52.080-0.297-104.16 0.236-156.235 0.116-11.237-2.664-15.152-14.539-15.072-75.916 0.503-151.843 0.543-227.764-0.035-12.232-0.095-14.333 4.156-14.293 15.157 0.377 104.155 0.397 208.315-0.025 312.47-0.045 11.192 2.201 14.815 14.227 14.715 75.916-0.618 151.843-0.563 227.759-0.050 11.634 0.080 14.81-3.106 14.67-14.725-0.628-52.065-0.271-104.145-0.271-156.225z" />
<glyph unicode="&#xe928;" glyph-name="restaurant" d="M402.752 459.046c0-114.307 0-227.965 0-342.723-19.287 0-37.58 0-57.6 0 0 114.284 0 228.262 0 342.496-39.063 3.049-65.929 21.242-80.291 56.233-3.148 7.671-5.484 16.311-5.539 24.521-0.436 67.962-0.247 135.93-0.247 205.108 18.729 0 37.1 0 57.516 0 0-4.369 0-9.068 0-13.763 0.003-60.905-0.079-121.807 0.061-182.711 0.044-18.839 7.415-27.348 27.764-31.319 0 75.971 0 151.601 0 228.108 19.994 0 38.022 0 57.495 0 0-75.616 0-151.401 0-227.27 20.5 1.356 29.268 11.215 29.35 32.721 0.195 51.121 0.064 102.246 0.067 153.37 0 13.3 0 26.598 0 40.983 18.647 0 36.623 0 56.841 0 0-3.738 0-7.948 0-12.154 0-60.46 0.134-120.919-0.041-181.376-0.154-52.916-31.264-87.060-85.376-92.224zM660.783 115.84c-19.997 0-38.077 0-57.015 0 0 209.699 0 418.778 0 627.84 57.92 10.225 114.961-13.158 147.692-62.487 16.172-24.369 23.849-51.418 23.956-80.454 0.256-68.879-0.055-137.76 0.288-206.639 0.041-8.067-3.136-11.593-9.911-14.889-31.86-15.5-63.34-31.791-95.241-47.206-7.561-3.654-9.987-8.154-9.946-16.349 0.317-61.324 0.172-122.65 0.172-183.977 0.006-4.806 0.006-9.615 0.006-15.84zM661.562 391.764c16.727 8.253 32.355 15.252 47.145 23.718 4.227 2.42 8.5 9.073 8.547 13.824 0.564 58.127 0.657 116.262 0.212 174.388-0.256 33.487-22.505 61.373-55.901 71.401-0.003-93.876-0.003-187.578-0.003-283.331zM512 907.636c122.772 0 238.199-47.811 325.012-134.624s134.624-202.24 134.624-325.012-47.811-238.199-134.624-325.012c-86.813-86.813-202.24-134.624-325.012-134.624s-238.199 47.811-325.012 134.624c-86.813 86.813-134.624 202.24-134.624 325.012s47.811 238.199 134.624 325.012c86.813 86.813 202.24 134.624 325.012 134.624zM512 960c-282.769 0-512-229.231-512-512s229.231-512 512-512 512 229.231 512 512-229.231 512-512 512v0z" />
<glyph unicode="&#xe929;" glyph-name="star-light1" d="M1024 557.851c0 15.181-11.484 24.615-34.47 28.312l-308.913 44.915-138.46 280.006c-7.79 16.821-17.849 25.227-30.155 25.227-12.303 0-22.356-8.406-30.153-25.227l-138.466-280.006-308.928-44.915c-22.968-3.697-34.457-13.131-34.457-28.312 0-8.62 5.13-18.466 15.388-29.543l224.003-217.847-52.923-307.688c-0.821-5.746-1.229-9.861-1.229-12.312 0-8.615 2.151-15.894 6.458-21.848 4.304-5.962 10.762-8.928 19.382-8.928 7.389 0 15.59 2.451 24.615 7.378l276.303 145.247 276.322-145.247c8.63-4.927 16.834-7.378 24.607-7.378 8.232 0 14.474 2.966 18.78 8.928 4.294 5.945 6.447 13.232 6.447 21.848 0 5.326-0.207 9.428-0.619 12.312l-52.927 307.688 223.384 217.847c10.682 10.667 16.009 20.518 16.009 29.543z" />
<glyph unicode="&#xe92a;" glyph-name="star-review" d="M1024 557.851c0 15.181-11.484 24.615-34.47 28.312l-308.913 44.915-138.46 280.006c-7.79 16.821-17.849 25.227-30.155 25.227-12.303 0-22.356-8.406-30.153-25.227l-138.466-280.006-308.928-44.915c-22.968-3.697-34.457-13.131-34.457-28.312 0-8.62 5.13-18.466 15.388-29.543l224.003-217.847-52.923-307.688c-0.821-5.746-1.229-9.861-1.229-12.312 0-8.615 2.151-15.894 6.458-21.848 4.304-5.962 10.762-8.928 19.382-8.928 7.389 0 15.59 2.451 24.615 7.378l276.303 145.247 276.322-145.247c8.63-4.927 16.834-7.378 24.607-7.378 8.232 0 14.474 2.966 18.78 8.928 4.294 5.945 6.447 13.232 6.447 21.848 0 5.326-0.207 9.428-0.619 12.312l-52.927 307.688 223.384 217.847c10.682 10.667 16.009 20.518 16.009 29.543z" />
<glyph unicode="&#xe92b;" glyph-name="star-review_2" d="M1024 557.851c0 15.181-11.484 24.615-34.47 28.312l-308.913 44.915-138.46 280.006c-7.79 16.821-17.849 25.227-30.155 25.227-12.303 0-22.356-8.406-30.153-25.227l-138.466-280.006-308.928-44.915c-22.968-3.697-34.457-13.131-34.457-28.312 0-8.62 5.13-18.466 15.388-29.543l224.003-217.847-52.923-307.688c-0.821-5.746-1.229-9.861-1.229-12.312 0-8.615 2.151-15.894 6.458-21.848 4.304-5.962 10.762-8.928 19.382-8.928 7.389 0 15.59 2.451 24.615 7.378l276.303 145.247 276.316-145.232c8.622-4.927 16.825-7.393 24.607-7.393 16.838 0 25.249 10.238 25.249 30.76 0 5.326-0.207 9.428-0.619 12.321l-52.918 307.677 223.378 217.849c10.665 10.682 15.991 20.533 15.991 29.558zM699.7 338.153l44.297-259.085-232 122.475-232.62-122.475 44.926 259.085-188.311 182.78 259.697 38.151 116.306 235.082 116.302-235.082 259.719-38.151-188.315-182.78z" />
<glyph unicode="&#xe92c;" glyph-name="stethoscope" d="M176.727 698.167c10.531 28.986 33.19 46.604 57.964 62.449 5.295 3.386 10.301 7.939 13.984 13.012 16.73 23.055 48.070 28.628 71.537 12.207 22.639-15.843 28.401-47.261 12.951-70.627-15.372-23.249-46.944-30.083-69.937-14.042-7.153 4.989-11.162 3.855-16.637-1.309-7.695-7.258-13.923-13.222-11.43-26.449 15.145-80.3 35.703-158.746 78.476-229.297 11.299-18.636 25.958-36.18 42.257-50.639 30.804-27.319 69.975-25.129 100.625 2.548 29.265 26.426 47.552 60.192 63.308 95.54 26.304 59.017 42.266 121.050 53.891 184.413 3.247 17.687-10.973 21.527-20.195 30.487-13.99-10.068-28.25-16.783-45.859-12.916-21.533 4.727-39.023 23.060-40.695 44.134-1.955 24.655 10.56 45.789 31.98 54.004 21.789 8.358 45.379 1.396 59.54-16.809 4.070-5.231 9.626-9.42 14.912-13.565 10.828-8.495 22.441-16.049 32.82-25.041 20.876-18.083 28.911-41.036 24.079-68.497-15.11-85.865-37.83-169.239-81.644-245.472-20.486-35.645-45.801-67.168-82.089-88.436-2.883-1.69-4.5-6.051-6.013-9.478-6.548-14.851-11.817-30.383-19.645-44.503-4.122-7.439-6.319-13.533-4.873-22.016 4.625-27.142 13.271-52.64 28.026-75.98 17.702-27.994 42.787-46.519 74.47-54.991 48.113-12.867 96.509-12.864 143.642 4.145 49.065 17.705 75.505 55.174 86.991 105.681-3.348 1.46-6.208 2.775-9.12 3.968-50.141 20.55-79.409 72.896-69.798 124.87 9.975 53.952 57.073 93.719 111.36 94.031 53.353 0.305 100.771-38.039 112.049-90.609 12.049-56.172-21.649-113.513-77.431-130.671-7.052-2.17-9.999-5.437-11.281-12.16-16.57-86.772-83.113-146.112-172.081-160.602-47.767-7.782-95.098-6.028-140.55 11.712-73.737 28.78-114.513 85.071-130.086 161.021-3.212 15.668-6.81 30.106-16.471 43.855-8.704 12.384-12.247 28.378-18.225 42.714-1.292 3.098-2.511 7.203-5.030 8.663-42.604 24.707-69.632 63.049-91.974 105.248-35.151 66.388-54.659 138.019-69.379 211.177-1.338 6.65-2.935 13.245-4.413 19.866-0.006 9.452-0.006 18.909-0.006 28.364zM745.626 346.132c-0.102-32.369 24.692-57.178 57.12-57.158 31.255 0.020 56.66 25.655 56.495 57.001-0.166 31.473-25.361 56.547-56.919 56.643-31.639 0.099-56.596-24.765-56.695-56.486zM801.783 317.536c-15.782 0.192-27.974 13.009-27.601 29.015 0.369 15.875 13.225 28.026 29.1 27.503 14.915-0.492 27.584-13.626 27.45-28.454-0.143-15.395-13.408-28.256-28.948-28.064zM512 907.636c122.772 0 238.199-47.811 325.012-134.624s134.624-202.24 134.624-325.012-47.811-238.199-134.624-325.012c-86.813-86.813-202.24-134.624-325.012-134.624s-238.199 47.811-325.012 134.624c-86.813 86.813-134.624 202.24-134.624 325.012s47.811 238.199 134.624 325.012c86.813 86.813 202.24 134.624 325.012 134.624zM512 960c-282.769 0-512-229.231-512-512s229.231-512 512-512 512 229.231 512 512-229.231 512-512 512v0z" />
<glyph unicode="&#xe92d;" glyph-name="swimming-pool" d="M636.157 386.473c0 19.948 0 39.441 0 60.111-73.239 0-145.379 0-218.080 0 0 21.027 0 40.855 0 61.955 72.276 0 144.378 0 217.353 0 0 21.37 0 41.495 0 62.636-72.044 0-144.212 0-217.155 0 0 21.149 0 41.315 0 62.676 71.951 0 144.099 0 217.469 0 0.224 4.94 0.463 8.771 0.556 12.602 0.532 21.414-0.41 42.979 1.841 64.207 4.48 42.237 41.905 76.748 84.204 79.121 12.605 0.707 25.286 0.111 38.618 0.111 0-20.454 0-40.256 0-61.716-9.21 0-18.147 0.163-27.078-0.032-22.764-0.495-34.877-12.794-34.886-35.505-0.041-94.513-0.163-189.030 0.227-283.543 0.035-8.751-2.886-13.236-10.429-16.442-16.66-7.092-33.489-11.543-52.64-6.179zM730.284 383.456c26.807-24.268 57.751-32.803 92.908-30.086 0-20.951 0-41.082 0-62.403-35.279-3.581-65.847 6.327-92.972 29.833-22.065-19.799-48.195-30.487-77.94-30.516-29.798-0.026-56.064 10.374-78.1 30.458-46.813-40.742-111.206-40.346-156.913 0.096-21.827-20.148-48.081-30.435-77.74-30.551-29.777-0.119-55.985 10.374-78.452 30.653-17.632-15.793-37.446-26.234-62.336-29.321 0 19.671-0.192 38.481 0.273 57.274 0.052 2.065 3.604 5.361 5.987 5.841 21.172 4.279 39.689 13.58 55.86 28.727 22.336-19.956 48.276-30.49 78.060-30.499 29.844-0.009 56.070 9.99 78.025 30.135 55.439-46.854 121.623-33.091 156.893 0.323 21.961-19.988 48.044-30.324 77.847-30.444 29.92-0.122 56.070 10.135 78.601 30.479zM261.201 195.962c-17.626-16.262-37.841-26.063-61.847-29.551 0 20.614 0 40.829 0 58.406 21.786 10.438 42.397 20.311 64.131 30.723 44.396-38.319 108.32-37.225 154.383 2.342 22.016-19.985 48.439-30.284 78.071-30.185 29.268 0.099 55.491 9.978 77.807 30.676 22.234-20.332 48.623-30.755 78.257-30.708 29.268 0.047 55.508 9.964 78.103 30.575 26.321-23.52 57.341-32.89 93.007-30.097 0-20.39 0-40.582 0-61.972-34.807-3.846-65.455 5.638-92.649 29.527-22.068-19.508-47.985-30.31-77.804-30.4-29.943-0.087-56.119 10.176-78.86 30.487-22.263-20.047-48.311-30.484-78.115-30.452-29.484 0.029-55.389 10.048-78.086 30.385-22.246-19.828-48.317-30.365-78.115-30.388-29.498-0.026-55.389 9.955-78.284 30.633zM448.195 791.034c0-22.173 0-41.722 0-62.857-8.611 0-16.82 0.073-25.030-0.015-24.98-0.259-36.748-11.779-36.777-36.73-0.111-93.775-0.212-187.552 0.201-281.324 0.044-9.658-3.36-14.54-11.732-17.937-16.372-6.641-32.826-11.028-50.772-5.894-0.163 2.848-0.396 4.992-0.396 7.136-0.017 101.044-0.189 202.089 0.070 303.133 0.116 45.231 30.598 82.941 75.020 91.616 15.741 3.078 32.297 2.004 49.417 2.871zM512 907.636c122.772 0 238.199-47.811 325.012-134.624s134.624-202.24 134.624-325.012-47.811-238.199-134.624-325.012c-86.813-86.813-202.24-134.624-325.012-134.624s-238.199 47.811-325.012 134.624c-86.813 86.813-134.624 202.24-134.624 325.012s47.811 238.199 134.624 325.012c86.813 86.813 202.24 134.624 325.012 134.624zM512 960c-282.769 0-512-229.231-512-512s229.231-512 512-512 512 229.231 512 512-229.231 512-512 512v0z" />
<glyph unicode="&#xe92e;" glyph-name="two_Arrow_941551" horiz-adv-x="613" d="M28.46 761.573h488.243l-93.127-93.127c-11.384-11.384-11.384-28.461 0-39.844 5.691-5.692 14.23-8.539 19.922-8.539 5.691 0 14.23 2.847 19.922 8.539l141.508 141.508c11.384 11.384 11.384 28.461 0 39.844l-141.508 141.509c-11.384 11.384-28.46 11.384-39.844 0-11.384-11.383-11.384-28.46 0-39.844l93.127-93.127h-488.243c-17.075 0.002-28.46-11.381-28.46-28.458s11.384-28.46 28.46-28.46zM28.46 77.056h488.243l-93.127-93.127c-11.384-11.384-11.384-28.461 0-39.844 5.691-5.692 14.23-8.539 19.922-8.539s14.23 2.847 19.922 8.539l141.508 141.508c11.384 11.384 11.384 28.461 0 39.844l-141.508 141.508c-11.384 11.384-28.46 11.384-39.844 0s-11.384-28.46 0-39.844l93.127-93.127h-488.243c-17.075 0-28.46-11.383-28.46-28.46s11.384-28.457 28.46-28.457z" />
<glyph unicode="&#xe92f;" glyph-name="checked-symbol" d="M999.67 787.624l-29.561 29.527c-32.452 32.521-85.62 32.521-118.175 0l-501.883-501.951-178.088 178.020c-32.452 32.486-85.655 32.486-118.106-0.034l-29.527-29.492c-32.452-32.486-32.452-85.655 0-118.141l266.496-266.771c32.486-32.452 85.655-32.452 118.141 0l590.703 590.703c32.417 32.486 32.417 85.655 0 118.141z" />
<glyph unicode="&#xe930;" glyph-name="info" d="M724.675 46.507l-14.308-58.488c-42.923-16.942-77.21-29.836-102.742-38.702-25.559-8.893-55.258-13.317-89.095-13.317-51.963 0-92.381 12.729-121.207 38.013-28.827 25.385-43.244 57.552-43.244 96.575 0 15.106 1.046 30.644 3.221 46.475 2.193 15.85 5.681 33.7 10.453 53.652l53.643 189.865c4.772 18.181 8.829 35.407 12.078 51.697 3.295 16.189 4.882 31.084 4.882 44.493 0 24.247-5.020 41.207-15.014 50.743-9.994 9.508-29.065 14.335-57.378 14.335-13.867 0-28.12-2.221-42.648-6.516-14.592-4.313-27.065-8.48-37.536-12.353l14.344 58.534c35.141 14.308 68.73 26.56 100.861 36.728 32.13 10.196 62.49 15.299 91.206 15.299 51.605 0 91.426-12.472 119.39-37.417 27.964-24.963 41.941-57.323 41.941-97.199 0-8.251-0.918-22.788-2.891-43.566-1.927-20.824-5.516-39.904-10.747-57.259l-53.413-189.103c-4.378-15.189-8.315-32.553-11.738-52.092-3.533-19.41-5.222-34.241-5.222-44.19 0-25.11 5.598-42.253 16.822-51.367 11.307-9.113 30.781-13.647 58.442-13.647 12.986 0 27.762 2.304 44.181 6.828 16.373 4.525 28.313 8.498 35.719 11.977zM738.221 840.417c0-32.947-12.417-61.086-37.371-84.222-24.889-23.219-54.882-34.838-89.967-34.838-35.196 0-65.261 11.619-90.435 34.838-25.128 23.146-37.72 51.275-37.72 84.222 0 32.883 12.592 61.067 37.72 84.497 25.128 23.393 55.249 35.086 90.435 35.086 35.076 0 65.078-11.72 89.967-35.086 24.972-23.43 37.371-51.624 37.371-84.497z" />
<glyph unicode="&#xe931;" glyph-name="man" d="M426.872 771.298c-29.32 0-54.438-10.842-75.64-31.774-21.263-21.88-32.211-47.345-32.211-75.671v-262.008c0-9.818 3.358-18.703 10.948-25.886 7.017-7.093 15.752-10.3 25.645-10.3 11.384 0 20.119 3.208 27.136 10.3 6.069 7.183 9.276 16.053 9.276 25.886v234.285h18.959v-648.644c0-12.499 5.436-24.034 15.827-32.919 9.743-9.818 21.128-14.065 34.214-14.065 14.185 0 25.57 4.201 34.846 14.065 9.818 8.885 14.276 20.405 14.276 32.919v376.004h21.188v-376.004c0-12.499 4.909-24.034 14.125-32.919 9.276-9.818 21.278-14.065 35.945-14.065 12.469 0 23.416 4.201 33.22 14.065 9.201 8.885 13.432 20.405 13.432 32.919v648.644h19.787v-234.285c0-9.818 3.117-18.703 9.683-25.886 7.8-7.093 16.836-10.3 26.669-10.3 11.535 0 20.269 3.208 26.82 10.3 5.918 7.183 9.668 16.053 9.668 25.886v261.993c0 28.265-10.3 53.805-31.578 75.595-20.751 21.022-45.613 31.774-76.122 31.774l-186.112 0.090zM520.433 792.847c22.859 0 43.038 7.529 59.272 23.236 16.233 16.143 24.501 36.081 24.501 60.13 0 22.92-8.358 42.571-24.561 58.79-16.294 16.685-36.412 24.998-59.211 24.998-24.019 0-44.213-8.312-59.407-24.998-16.203-16.218-23.853-35.87-23.853-58.79 0-24.094 7.65-44.047 23.853-60.13 15.285-15.706 35.479-23.236 59.407-23.236z" />
<glyph unicode="&#xe932;" glyph-name="man_2" d="M428.313 737.708v-0.098h173.365c28.405 0 51.579-10.002 70.908-29.584 19.821-20.298 29.415-44.088 29.415-70.418v-244.049c0-9.146-3.493-17.422-9.006-24.113-6.116-6.607-14.252-9.595-24.983-9.595-9.146 0-17.576 2.988-24.843 9.595-6.116 6.691-9.020 14.953-9.020 24.113v218.238h-18.432v-604.216c0-11.643-3.928-22.388-12.512-30.664-9.132-9.174-19.33-13.102-30.944-13.102-13.663 0-24.843 3.942-33.483 13.102-8.585 8.276-13.158 19.007-13.158 30.664v350.25h-19.737v-350.25c0-11.643-4.152-22.388-13.298-30.664-8.641-9.174-19.246-13.102-32.459-13.102-12.19 0-22.795 3.942-31.87 13.102-9.665 8.276-14.743 19.007-14.743 30.664v604.216h-17.66v-218.252c0-9.146-2.988-17.422-8.641-24.113-6.537-6.607-14.673-9.595-25.277-9.595-9.216 0-17.352 2.988-23.889 9.595-7.070 6.691-10.198 14.953-10.198 24.113v244.063c0 26.414 10.198 50.106 30.005 70.488 19.751 19.512 43.148 29.612 70.46 29.612zM428.313 765.763c-34.507 0-64.849-12.681-90.182-37.692-25.221-25.951-38.337-57.092-38.337-90.463v-244.049c0-17.212 6.439-32.473 18.642-44.172 11.559-11.502 26.582-17.576 43.499-17.576 8.515 0 16.37 1.305 23.524 3.928v-328.143c0-19.596 8.402-37.748 23.678-51.214 13.943-13.663 31.099-20.592 50.99-20.592 20.999 0 38.533 7.098 52.126 21.111 1.22 1.136 2.385 2.315 3.507 3.521 0.996-1.108 2.034-2.174 3.114-3.226 13.663-14.21 31.632-21.406 53.416-21.406 19.61 0 36.724 7.182 50.835 21.35 13.396 12.905 20.676 30.496 20.676 50.457v328.802c7.575-3.044 15.725-4.601 24.239-4.601 18.825 0 34.171 6.256 45.575 18.586l0.547 0.589 0.519 0.617c10.072 12.232 15.402 26.736 15.402 41.956v244.063c0 34.311-12.583 64.596-37.397 90.014-24.941 25.291-55.52 38.042-90.968 38.042l-173.407 0.098zM515.465 927.499c21.237 0 39.978-7.729 55.156-23.285 15.093-15.093 22.879-33.399 22.879-54.749 0-22.402-7.701-40.974-22.823-56.011-15.108-14.631-33.918-21.644-55.212-21.644-22.29 0-41.1 7.014-55.338 21.644-15.093 14.981-22.219 33.568-22.219 56.011 0 21.35 7.126 39.655 22.219 54.749 14.168 15.556 32.964 23.285 55.338 23.285zM515.465 955.553c-30.215 0-56.362-11.054-75.65-31.968-19.891-20.115-29.977-45.056-29.977-74.135 0-30.285 10.254-55.829 30.51-75.93 18.867-19.372 44.944-29.794 75.103-29.794 28.924 0 54.763 10.212 74.724 29.542 20.901 20.775 31.365 46.332 31.365 76.169 0 28.462-10.759 54.258-31.099 74.598-20.003 20.536-46.010 31.52-74.976 31.52v0z" />
<glyph unicode="&#xe933;" glyph-name="woman" d="M506.082 270.938v-291.976c0-11.475-3.78-20.977-10.888-27.859-7.093-7.153-16.369-10.586-27.753-10.586-11.505 0-21.323 3.448-28.928 10.586-8.147 6.882-11.896 16.384-11.896 27.859v291.976h-109.387l113.815 384.316h-19.576c-12.484-43.083-22.98-77.734-31.232-105.231-7.409-27.362-15.631-53.338-22.769-78.336-8.117-24.681-13.553-40.312-14.11-45.658-4.954-16.294-15.752-24.2-32.678-24.2l-8.614 2.093c-15.782 5.843-23.477 16.053-23.477 30.584 0 3.976 0.557 7.243 2.153 10.526 1.129 2.816 4.397 12.469 8.222 28.853 4.397 16.248 10.3 36.457 17.423 59.949 7.093 23.868 14.773 49.709 22.814 77.432 8.222 27.889 15.752 54.694 24.998 80.565 5.451 19.787 17.423 37.858 35.945 53.459 18.462 16.173 37.632 23.537 57.66 23.537h133.903c20.706 0 40.824-7.364 58.775-23.537 17.468-15.676 30.027-33.641 37.030-53.459 7.499-25.856 15.179-52.676 22.739-80.565 7.77-27.723 15.917-53.564 22.468-77.432 6.942-23.507 13.011-43.701 17.288-59.949 4.337-16.384 7.138-26.037 8.659-28.853l2.138-8.614c0-17.574-8.222-27.874-23.974-32.392l-8.026-2.199c-17.348 0-28.265 7.936-32.602 24.2-1.205 5.346-6.069 20.992-12.514 45.658-7.605 24.998-15.36 50.959-24.049 78.336-8.704 27.407-18.914 62.148-31.383 105.306h-19.667l113.664-384.422h-107.64v-291.945c0-11.475-3.268-21.007-11.972-27.859-7.68-7.183-16.926-10.586-28.265-10.586-11.972 0-20.781 3.448-28.265 10.586-7.093 6.852-10.3 16.384-10.3 27.859v291.976h-19.727zM516.849 792.847c22.92 0 42.571 7.529 57.811 23.236 15.706 16.053 23.944 36.036 23.944 60.13 0 22.92-8.237 42.571-23.944 58.79-15.164 16.685-34.891 24.998-57.811 24.998-24.41 0-44.649-8.312-61.485-24.998-16.309-16.143-24.335-35.87-24.335-58.79 0-24.094 8.026-44.047 24.41-60.13 16.851-15.706 37.075-23.236 61.41-23.236z" />
<glyph unicode="&#xe935;" glyph-name="woman_21" horiz-adv-x="514" d="M321.027 761.316c19.948 0 39.33-7.080 56.609-22.676 16.829-15.103 28.928-32.41 35.675-51.517 7.225-24.91 14.624-50.748 21.907-77.616 7.486-26.694 15.335-51.604 21.646-74.584 6.688-22.661 12.535-42.101 16.655-57.755 4.178-15.799 6.877-25.084 8.327-27.797l2.075-8.284c0-16.945-7.921-26.868-23.096-31.221l-7.733-2.118c-16.713 0-27.231 7.631-31.409 23.299-1.161 5.136-5.847 20.238-12.056 44.002-7.326 24.083-14.798 49.080-23.169 75.455-8.385 26.404-18.236 59.873-30.234 101.453h-18.918l109.49-370.339h-103.687v-281.276c0-11.069-3.148-20.253-11.534-26.854-7.399-6.92-16.307-10.199-27.231-10.199-11.534 0-20.021 3.322-27.231 10.199-6.833 6.601-9.923 15.784-9.923 26.854v281.305h-19.020v-281.276c0-11.069-3.641-20.224-10.489-26.854-6.833-6.906-15.77-10.199-26.738-10.199-11.084 0-20.543 3.322-27.869 10.199-7.849 6.63-11.461 15.784-11.461 26.854v281.276h-105.37l109.65 370.252h-18.86c-12.027-41.507-22.139-74.889-30.089-101.38-7.138-26.346-15.059-51.372-21.936-75.455-7.82-23.793-13.057-38.852-13.594-43.987-4.773-15.726-15.175-23.314-31.482-23.314l-8.298 2.017c-15.204 5.6-22.618 15.451-22.618 29.451 0 3.845 0.537 6.978 2.075 10.141 1.088 2.713 4.236 11.998 7.921 27.797 4.236 15.654 9.923 35.123 16.785 57.755 6.833 22.98 14.232 47.89 21.979 74.584 7.921 26.868 15.175 52.707 24.083 77.616 5.252 19.063 16.785 36.472 34.63 51.517 17.786 15.581 36.255 22.676 55.55 22.676h128.988zM321.027 790.332h-129.017c-26.941 0-52.068-10.054-74.671-29.857-21.486-18.12-36.139-39.94-43.161-64.53-7.617-21.413-13.884-42.812-20.514-65.459l-3.743-12.738c-7.718-26.607-15.059-51.314-21.834-74.135-7.413-24.446-12.984-43.61-17.105-58.829l-0.102-0.522-0.116-0.508c-2.96-12.694-5.484-20.572-6.398-23.067-2.945-6.514-4.367-13.55-4.367-21.457 0-26.23 15.132-46.875 41.55-56.696l1.61-0.595 1.683-0.406 8.298-1.988 3.337-0.812h3.438c1.639 0 3.25 0.044 4.846 0.145l-37.372-126.246h115.22v-252.261c0-19.76 7.312-36.516 21.152-48.499 12.506-11.505 28.798-17.569 47.179-17.569 18.323 0 34.369 6.195 46.468 17.932 12.694-11.925 28.45-17.932 46.918-17.932 18.004 0 33.542 5.803 46.178 17.235 10.083 8.298 21.602 23.343 21.602 48.833v252.232h113.523l-11.026 37.241-26.303 89.034c1.567-0.087 3.192-0.145 4.802-0.145h3.888l11.476 3.148c28.421 8.168 44.466 29.712 44.466 59.221v3.54l-0.87 3.438-2.060 8.284-0.899 3.627-1.219 2.234c-0.682 1.915-2.365 7.312-6.354 22.371-3.54 13.507-8.24 29.364-13.681 47.759l-3.206 10.794c-3.163 11.519-6.891 24.097-10.765 37.169-3.54 11.911-7.196 24.271-10.765 37.038-7.878 28.986-15.9 56.856-21.994 77.863l-0.232 0.798-0.29 0.783c-8.327 23.575-23.009 44.93-43.654 63.457-21.733 19.643-48.035 30.075-75.919 30.075v0zM259.094 930.1c17.845 0 33.237-6.456 45.047-19.498 12.245-12.622 18.642-27.942 18.642-45.786 0-18.773-6.398-34.354-18.642-46.846-11.882-12.245-27.202-18.106-45.047-18.106-18.962 0-34.717 5.861-47.847 18.106-12.767 12.535-19.034 28.072-19.034 46.846 0 17.859 6.267 33.237 18.962 45.801 13.13 13.028 28.899 19.484 47.919 19.484zM259.094 959.115c-26.709 0-49.704-9.387-68.346-27.913-18.004-17.816-27.536-40.781-27.536-66.387 0-26.767 9.328-49.5 27.71-67.548l0.551-0.522c18.439-17.192 41.187-25.896 67.635-25.896 25.998 0 48.775 9.314 65.865 26.912 17.525 17.888 26.839 41.1 26.839 67.055 0 24.924-9.154 47.6-26.491 65.633-17.177 18.759-40.056 28.667-66.228 28.667v0z" />
</font>
</defs>
</svg>
